<?xml version="1.0" encoding="utf-8"?>
<!-- Generator: Adobe Illustrator 21.1.0, SVG Export Plug-In . SVG Version: 6.00 Build 0)  -->
<svg version="1.1" id="Warstwa_1" xmlns="http://www.w3.org/2000/svg" xmlns:xlink="http://www.w3.org/1999/xlink" x="0px" y="0px"
	 viewBox="0 0 792 792" style="enable-background:new 0 0 792 792;" xml:space="preserve">
<path d="M283.3,523.4c4.1-16.6-6.7-15.4-6.7-15.4c-11.6-0.4-12.8,20.4-12.8,20.4l-12.6,2.5c-0.5-15.2,2.7-26.5,2.7-26.5
	c6.2-22,17.7-29.4,17.7-29.4c18.4-12.6,30.3,3.5,30.3,3.5c12.2,17.4-3.8,47.2-3.8,47.2c-7.2,14-8.1,21-8.1,21
	c-1.8,10.1,8.7,7.6,8.7,7.6c-1.2-8.9,7-6.3,7-6.3c6.1,2.5,2.8,7.6,2.8,7.6c-5.8,10-18.8,5.4-18.8,5.4c-14.7-5.3-9.2-27-9.2-27
	C281.3,530.4,283.3,523.4,283.3,523.4z M193.7,525.6c10.4-5,19.9,13.5,19.9,13.5l12.6-2.8c-5.7-14.1-13.1-23.2-13.1-23.2
	c-14.5-17.7-28-19.8-28-19.8c-21.9-4.1-26.3,15.4-26.3,15.4c-4.3,20.8,22.4,41.7,22.4,41.7c12.2,9.9,15.9,16,15.9,16
	c5.7,8.5-4.9,10.5-4.9,10.5c-2.5-8.6-8.9-2.9-8.9-2.9c-4.5,4.7,0.5,8,0.5,8c9.3,6.8,19.4-2.6,19.4-2.6c11.4-10.8-2.4-28.4-2.4-28.4
	c-2.3-3-7-8.5-7-8.5C183.2,528.8,193.7,525.6,193.7,525.6z M223.1,557.6l39.3-8.6c4.1-0.9,6.9-4.4,6.1-7.9c-0.8-3.5-4.7-5.5-8.9-4.6
	l-39.3,8.6c-4.1,0.9-6.9,4.4-6.1,7.9C214.9,556.5,218.9,558.5,223.1,557.6z M229.1,433.8c0,0-11.4-12.2-16.1-18.8
	c0,0-0.6,8.3-5.6,23.7c0,0-7.8,21.1,6.1,48.2c0,0,10.6,18.2,20.2,47.9l10.1-2.2c0,0-2.5-28.8-1-52.4
	C242.8,480.1,246.1,452.5,229.1,433.8z M76.8,464.4c0,0,13.5-5.2,20.6-9.6c0,0,31.2-154.9,205.7-210c0,0-3.9-9-7.9-13.9
	C295.2,230.9,127.4,271,76.8,464.4z M370.1,409.4c0,0-7.4-126.1-57.5-210.6c0,0-6.8,1.5-14.3,5.3c0,0,45.5,80.4,55.7,203.4
	C354,407.4,361.8,409.4,370.1,409.4z M53.1,476.1c9.4,0,17.1-7.6,17.1-17.1c0-9.4-7.6-17.1-17.1-17.1c-9.4,0-17.1,7.6-17.1,17.1
	C36,468.5,43.6,476.1,53.1,476.1z M65.5,434.4c9.4,0,17.1-7.6,17.1-17.1c0-9.4-7.6-17.1-17.1-17.1c-9.4,0-17.1,7.6-17.1,17.1
	C48.5,426.8,56.1,434.4,65.5,434.4z M83.1,395c9.4,0,17.1-7.6,17.1-17.1c0-9.4-7.6-17.1-17.1-17.1c-9.4,0-17.1,7.6-17.1,17.1
	C66.1,387.4,73.7,395,83.1,395z M105.4,359.3c9.4,0,17.1-7.6,17.1-17.1c0-9.4-7.6-17.1-17.1-17.1c-9.4,0-17.1,7.6-17.1,17.1
	C88.4,351.6,96,359.3,105.4,359.3z M131.8,324.9c9.4,0,17.1-7.6,17.1-17.1c0-9.4-7.6-17.1-17.1-17.1c-9.4,0-17.1,7.6-17.1,17.1
	C114.8,317.2,122.4,324.9,131.8,324.9z M162.1,295.2c9.4,0,17.1-7.6,17.1-17.1c0-9.4-7.6-17.1-17.1-17.1c-9.4,0-17.1,7.6-17.1,17.1
	C145.1,287.5,152.7,295.2,162.1,295.2z M396,369c-10.4,0-18.9,8.5-18.9,18.9c0,10.4,8.5,18.9,18.9,18.9c10.4,0,18.9-8.5,18.9-18.9
	C414.9,377.4,406.4,369,396,369z M396,322.2c-10.4,0-18.9,8.5-18.9,18.9S385.6,360,396,360c10.4,0,18.9-8.5,18.9-18.9
	S406.4,322.2,396,322.2z M396,276.9c-10.4,0-18.9,8.5-18.9,18.9c0,10.4,8.5,18.9,18.9,18.9c10.4,0,18.9-8.5,18.9-18.9
	C414.9,285.4,406.4,276.9,396,276.9z M197.3,269c9.4,0,17.1-7.6,17.1-17.1c0-9.4-7.6-17.1-17.1-17.1c-9.4,0-17.1,7.6-17.1,17.1
	C180.3,261.4,187.9,269,197.3,269z M234.2,247c9.4,0,17.1-7.6,17.1-17.1c0-9.4-7.6-17.1-17.1-17.1c-9.4,0-17.1,7.6-17.1,17.1
	C217.2,239.4,224.8,247,234.2,247z M273.6,228.8c9.4,0,17.1-7.6,17.1-17.1c0-9.4-7.6-17.1-17.1-17.1c-9.4,0-17.1,7.6-17.1,17.1
	C256.5,221.2,264.1,228.8,273.6,228.8z M659.5,467.5L659.5,467.5c0-0.1,0-0.1,0-0.2L659.5,467.5z M698.6,529.7
	c-27.1-19.3-39.1-62.1-39.1-62.1c0,0.1,0,0.3-0.1,0.5C650.7,528.9,630,570,630,570c31.5-13.2,53.8-6.1,53.8-6.1
	c-26.8,53-76.5,40.5-76.5,40.5c-33-8.6-41.3-39.5-41.3-39.5l-37.2-8.2c-36.4,34.3-70.3,18.3-70.3,18.3c-40.4-16.7-42-60.4-42-60.4
	c29.7,7.9,45.1,26.6,45.1,26.6c-1.5-59.1,9.7-98.9,9.7-98.9c-32.8,27.2-52.5,25.9-52.5,25.9C424,442,451.5,415,451.5,415
	c-27.1,5.7-55.4,5.7-55.4,5.7h-0.2c0,0-28.3,0-55.4-5.7c0,0,27.5,27,32.7,53.4c0,0-19.6,1.3-52.5-25.9c0,0,11.2,39.8,9.7,98.9
	c0,0,15.4-18.7,45.1-26.6c0,0-1.7,43.7-42,60.4c0,0-33.8,15.9-70.3-18.3L226,565c0,0-8.3,30.9-41.3,39.5c0,0-49.7,12.5-76.5-40.5
	c0,0,22.2-7.2,53.8,6.1c0,0-20.8-41.2-29.4-102.1c0-0.2,0-0.3-0.1-0.5c0,0-12,42.9-39.1,62.1c0,0-5-36.9,5.5-67.3
	c0,0-31.5,21.3-61.5,30.5c0,0,54.8,66.8,64.7,146c0,0,139.5-59.4,293.8-58.9h0.2c156-1.3,293.8,58.9,293.8,58.9
	c9.9-79.2,64.7-146,64.7-146c-29.9-9.2-61.5-30.5-61.5-30.5C703.5,492.8,698.6,529.7,698.6,529.7z M132.5,467.3c0,0.1,0,0.1,0,0.2
	l0,0L132.5,467.3z M515.4,508c11.6-0.4,12.8,20.4,12.8,20.4l12.6,2.5c0.5-15.2-2.7-26.5-2.7-26.5c-6.2-22-17.7-29.4-17.7-29.4
	c-18.4-12.6-30.3,3.5-30.3,3.5c-12.2,17.4,3.8,47.2,3.8,47.2c7.2,14,8.1,21,8.1,21c1.8,10.1-8.7,7.6-8.7,7.6c1.2-8.9-7-6.3-7-6.3
	c-6.1,2.5-2.8,7.6-2.8,7.6c5.8,10,18.8,5.4,18.8,5.4c14.7-5.3,9.2-27,9.2-27c-1-3.6-3-10.6-3-10.6C504.5,506.8,515.4,508,515.4,508z
	 M610.8,550.3c0,0,26.7-20.9,22.4-41.7c0,0-4.4-19.5-26.3-15.4c0,0-13.4,2.2-28,19.8c0,0-7.4,9.1-13.1,23.2l12.6,2.8
	c0,0,9.5-18.5,19.9-13.5c0,0,10.4,3.2,0,16.8c0,0-4.7,5.5-7,8.5c0,0-13.7,17.6-2.4,28.4c0,0,10.1,9.5,19.4,2.6c0,0,5.1-3.3,0.5-8
	c0,0-6.5-5.7-8.9,2.9c0,0-10.6-2-4.9-10.5C595,566.3,598.6,560.2,610.8,550.3z M529.7,549.1l39.3,8.6c4.1,0.9,8.1-1.2,8.9-4.6
	c0.8-3.5-2-7-6.1-7.9l-39.3-8.6c-4.1-0.9-8.1,1.2-8.9,4.6C522.8,544.6,525.6,548.2,529.7,549.1z M558.3,534.7
	c9.5-29.7,20.2-47.9,20.2-47.9c13.9-27.2,6.1-48.2,6.1-48.2c-5-15.3-5.6-23.7-5.6-23.7c-4.7,6.6-16.1,18.8-16.1,18.8
	c-17.1,18.7-13.8,46.4-13.8,46.4c1.5,23.5-1,52.4-1,52.4L558.3,534.7z M694.5,454.7c7.2,4.4,20.6,9.6,20.6,9.6
	C664.6,271,496.8,230.9,496.8,230.9c-4,5-7.9,13.9-7.9,13.9C663.3,299.8,694.5,454.7,694.5,454.7z M438,407.4
	c10.3-122.9,55.7-203.4,55.7-203.4c-7.5-3.9-14.3-5.3-14.3-5.3c-50.1,84.6-57.5,210.6-57.5,210.6C430.2,409.4,438,407.4,438,407.4z
	 M721.9,459.1c0,9.4,7.6,17.1,17.1,17.1c9.4,0,17.1-7.6,17.1-17.1c0-9.4-7.6-17.1-17.1-17.1C729.5,442,721.9,449.6,721.9,459.1z
	 M709.4,417.3c0,9.4,7.6,17.1,17.1,17.1c9.4,0,17.1-7.6,17.1-17.1c0-9.4-7.6-17.1-17.1-17.1C717,400.3,709.4,407.9,709.4,417.3z
	 M691.8,378c0,9.4,7.6,17.1,17.1,17.1c9.4,0,17.1-7.6,17.1-17.1c0-9.4-7.6-17.1-17.1-17.1C699.4,360.9,691.8,368.6,691.8,378z
	 M669.5,342.2c0,9.4,7.6,17.1,17.1,17.1c9.4,0,17.1-7.6,17.1-17.1c0-9.4-7.6-17.1-17.1-17.1C677.1,325.1,669.5,332.8,669.5,342.2z
	 M660.2,324.9c9.4,0,17.1-7.6,17.1-17.1c0-9.4-7.6-17.1-17.1-17.1c-9.4,0-17.1,7.6-17.1,17.1C643.1,317.2,650.7,324.9,660.2,324.9z
	 M629.9,295.2c9.4,0,17.1-7.6,17.1-17.1c0-9.4-7.6-17.1-17.1-17.1c-9.4,0-17.1,7.6-17.1,17.1C612.8,287.5,620.5,295.2,629.9,295.2z
	 M594.7,269c9.4,0,17.1-7.6,17.1-17.1c0-9.4-7.6-17.1-17.1-17.1s-17.1,7.6-17.1,17.1C577.6,261.4,585.2,269,594.7,269z M557.8,247
	c9.4,0,17.1-7.6,17.1-17.1c0-9.4-7.6-17.1-17.1-17.1c-9.4,0-17.1,7.6-17.1,17.1C540.7,239.4,548.4,247,557.8,247z M518.4,228.8
	c9.4,0,17.1-7.6,17.1-17.1c0-9.4-7.6-17.1-17.1-17.1c-9.4,0-17.1,7.6-17.1,17.1C501.4,221.2,509,228.8,518.4,228.8z M377.4,130.2
	c1.5-6.1,0.7-11.2,0.7-11.2c-12.5,2.8-28.1,19.1-28.1,19.1c3.7-26.1-0.9-66.4-0.9-66.4c19.1,14.5,30.1,15,30.1,15
	c-1.3-11.6-16.9-30.1-16.9-30.1c13.4,2.4,32,2.7,33.8,2.7c1.8,0,20.3-0.3,33.8-2.7c0,0-15.6,18.5-16.9,30.1c0,0,11-0.6,30.1-15
	c0,0-4.6,40.4-0.9,66.4c0,0-15.6-16.3-28.1-19.1c0,0-0.7,5.2,0.7,11.2c21.1,7.7,36.1,27.8,36.1,51.5c0,26.4-18.6,48.4-43.5,53.7
	c4.5,3.5,7.4,8.9,7.4,15c0,10.4-8.5,18.9-18.9,18.9c-10.4,0-18.9-8.5-18.9-18.9c0-6.1,2.9-11.6,7.5-15
	c-24.7-5.3-43.3-27.3-43.3-53.6C341.3,157.9,356.3,137.8,377.4,130.2z M382.3,104.1c0,7.6,6.1,13.7,13.7,13.7
	c7.6,0,13.7-6.1,13.7-13.7c0-7.6-6.1-13.7-13.7-13.7C388.4,90.4,382.3,96.5,382.3,104.1z M396,634.4
	c166.7,3.1,292.2,63.3,292.2,63.3c-3.6-20.4-0.8-41.8-0.8-41.8c-143.4-62.1-290.9-60-291.4-60c-0.5,0-148-2.1-291.4,60
	c0,0,2.8,21.5-0.8,41.8C103.8,697.7,229.3,637.6,396,634.4z M396,650.1c0,0-148.1-2-294.1,65.8c0,0-3.6,15.1-6.3,19.5
	c0,0,143.6-71.2,300.5-69.8c156.8-1.4,300.5,69.8,300.5,69.8c-2.8-4.4-6.3-19.5-6.3-19.5C544.1,648,396,650.1,396,650.1z"/>
</svg>
